<?xml version="1.0" encoding="UTF-8" standalone="no"?>
<svg
   version="1.1"
   x="0px"
   y="0px"
   viewBox="0 0 20 23.202999"
   enable-background="new 0 0 32 32"
   xml:space="preserve"
   id="svg4"
   width="20"
   height="23.202999"
   xmlns="http://www.w3.org/2000/svg"
   xmlns:svg="http://www.w3.org/2000/svg"><defs
     id="defs4" /><g
     id="g2"
     transform="translate(-6,-4.399)"><path
       d="m 16,15.398 c 1.93,0 3.5,-1.57 3.5,-3.5 0,-1.93 -1.57,-3.5 -3.5,-3.5 -1.93,0 -3.5,1.57 -3.5,3.5 0,1.93 1.57,3.5 3.5,3.5 z m 0,-6 c 1.378,0 2.5,1.121 2.5,2.5 0,1.379 -1.122,2.5 -2.5,2.5 -1.378,0 -2.5,-1.121 -2.5,-2.5 0,-1.379 1.122,-2.5 2.5,-2.5 z"
       id="path1" /><path
       id="path2"
       d="m 16,4.399 c -4.135996,0 -7.5,3.3630041 -7.5,7.5 0,2.349998 1.0871579,4.44922 2.785156,5.824219 L 9.1914062,22.399 H 6 v 1 H 8.7441406 L 7.0429688,27.193922 7.9550781,27.602125 9.8398438,23.399 H 22.162109 l 1.88086,4.203125 0.912109,-0.408203 L 23.259766,23.399 H 26 v -1 H 22.8125 L 20.720703,17.719313 C 22.414701,16.344314 23.5,14.245998 23.5,11.899 c 0,-4.1369959 -3.364004,-7.5 -7.5,-7.5 z m 0,0.9980469 c 3.583996,0 6.5,2.9160036 6.5,6.5000001 0,3.583996 -2.916004,6.5 -6.5,6.5 -3.583996,0 -6.5,-2.916004 -6.5,-6.5 0,-3.5839965 2.916004,-6.5000001 6.5,-6.5000001 z m 3.882812,12.9023441 1.832032,4.097656 H 10.287109 l 1.833985,-4.09375 c 1.132999,0.688999 2.456954,1.09375 3.876953,1.09375 1.422998,0 2.750767,-0.405657 3.884765,-1.097656 z" /></g></svg>
