<?xml version="1.0" encoding="UTF-8" standalone="no"?>
<svg
   version="1.1"
   x="0px"
   y="0px"
   viewBox="0 0 29.009018 29.009018"
   xml:space="preserve"
   id="svg4"
   width="29.009018"
   height="29.009018"
   xmlns="http://www.w3.org/2000/svg"
   xmlns:svg="http://www.w3.org/2000/svg"><defs
     id="defs4" /><style
     type="text/css"
     id="style1">&#10;	.st0{fill:#020202;}&#10;	.st1{fill:none;stroke:#231F20;stroke-width:2;stroke-linecap:round;stroke-linejoin:round;stroke-miterlimit:10;}&#10;</style><path
     id="path1"
     d="m 24.03125,0 c -0.216797,-0.00195312 -0.44336,0.0839845 -0.630859,0.20898438 l -4,3.00000002 C 19.100391,3.4089842 19,3.7097659 19,4.0097656 V 8.609375 l -7.5,7.5 c -0.2,-0.1 -0.3,-0.09961 -0.5,-0.09961 -1.0999989,0 -2,0.900001 -2,2 0,1.099999 0.9000011,2 2,2 1.099999,0 2,-0.900001 2,-2 0,-0.2 3.91e-4,-0.300001 -0.09961,-0.5 l 7.5,-7.5 H 25 c 0.3,0 0.600781,-0.1003913 0.800781,-0.400391 l 3,-4 c 0.2,-0.2999997 0.299609,-0.7000003 0.09961,-1 C 28.700391,4.2093754 28.4,4.0097656 28,4.0097656 h -3 v -3 C 25,0.60976602 24.80039,0.3093748 24.400391,0.109375 24.287891,0.03437507 24.161328,0.00117187 24.03125,0 Z M 23,3.0097656 V 4.609375 l -2,2 V 4.5097656 Z m 1.400391,3 H 26 l -1.5,2 h -2.099609 z m -13.400391,1 c -6.0999939,0 -11,4.9000064 -11,11.0000004 0,6.099994 4.9000061,11 11,11 6.099994,0 11,-4.900006 11,-11 0,-1.699999 -0.39961,-3.300783 -1.099609,-4.800782 -0.2,-0.499999 -0.800782,-0.699999 -1.300782,-0.5 -0.499999,0.2 -0.699999,0.800782 -0.5,1.300782 0.6,1.199998 0.900391,2.498439 0.900391,3.898437 0,4.999995 -4.000005,9 -9,9 -4.999995,0 -9,-4.000005 -9,-9 0,-4.999995 4.000005,-8.9999999 9,-8.9999999 1.399999,0 2.700392,0.3003912 3.900391,0.9003907 0.499999,0.2000002 1.098828,-6e-7 1.298828,-0.5 0.2,-0.4999995 -1e-6,-1.0988284 -0.5,-1.2988282 -1.399999,-0.5999994 -2.999221,-1 -4.699219,-1 z m 0,4.0000004 c -3.8999961,0 -7,3.100004 -7,7 0,3.899996 3.1000039,7 7,7 3.899996,0 7,-3.100004 7,-7 0,-0.8 -0.100391,-1.600782 -0.400391,-2.300782 -0.199999,-0.499999 -0.798828,-0.799609 -1.298828,-0.599609 -0.499999,0.2 -0.801562,0.798829 -0.601562,1.298828 0.2,0.5 0.300781,1.101173 0.300781,1.701172 0,2.799997 -2.200003,5 -5,5 -2.7999972,0 -5,-2.200003 -5,-5 0,-2.799997 2.2000028,-5.099609 5,-5.099609 0.599999,0 1.099219,0.09883 1.699219,0.298828 0.499999,0.2 1.100781,-0.09961 1.300781,-0.59961 0.2,-0.499999 -0.09961,-1.100781 -0.599609,-1.300781 -0.8,-0.3 -1.600392,-0.398437 -2.400391,-0.398437 z" /></svg>
