<?xml version="1.0" encoding="UTF-8" standalone="no"?>
<svg
   version="1.1"
   x="0px"
   y="0px"
   viewBox="0 0 73.40625 52"
   id="svg2"
   width="73.40625"
   height="52"
   xmlns="http://www.w3.org/2000/svg"
   xmlns:svg="http://www.w3.org/2000/svg">
  <defs
     id="defs2" />
  <path
     id="path1"
     style="color:#000000;font-style:normal;font-variant:normal;font-weight:normal;font-stretch:normal;font-size:medium;line-height:normal;font-family:Sans;-inkscape-font-specification:Sans;text-indent:0;text-align:start;text-decoration:none;text-decoration-line:none;letter-spacing:normal;word-spacing:normal;text-transform:none;writing-mode:lr-tb;direction:ltr;baseline-shift:baseline;text-anchor:start;display:inline;overflow:visible;visibility:visible;fill:#000000;fill-opacity:1;stroke:none;stroke-width:2;marker:none;enable-background:accumulate"
     d="M 26,0 C 11.652457,0 0,11.652424 0,26 0,40.347486 11.652457,52 26,52 37.808989,52 47.807276,44.112789 50.96875,33.3125 L 49.03125,32.75 C 46.11482,42.71309 36.919351,50 26,50 12.733339,50 2,39.266587 2,26 2,12.733303 12.733339,2 26,2 38.92641,2 49.438086,12.205055 49.96875,25 H 41.9375 C 41.41493,16.644296 34.4852,10 26,10 c -8.824704,0 -16,7.175259 -16,16 0,8.824691 7.175296,16 16,16 8.4852,0 15.41493,-6.645134 15.9375,-15 h 8.625 L 57.28125,33.71875 57.59375,34 H 58 71 73.40625 L 71.71875,32.28125 65.4375,26 71.71875,19.71875 73.40625,18 H 71 58 57.59375 L 57.28125,18.28125 51.875,23.6875 C 50.703846,10.420334 39.568206,0 26,0 Z m 0,12 c 7.407318,0 13.45779,5.72458 13.96875,13 h -8.0625 C 31.431725,22.164876 28.964983,20 26,20 c -3.301861,0 -6,2.698103 -6,6 0,3.301797 2.698139,6 6,6 2.964983,0 5.431725,-2.165552 5.90625,-5 h 8.0625 C 39.45779,34.274477 33.407318,40 26,40 18.256174,40 12,33.743792 12,26 12,18.256138 18.256174,12 26,12 Z m 32.4375,8 h 5.125 l -5,5 h -5.125 z m 7.96875,0 h 2.15625 l -5,5 h -2.125 z M 26,22 c 2.220984,0 4,1.778992 4,4 0,2.220998 -1.779016,4 -4,4 -2.220983,0 -4,-1.779002 -4,-4 0,-2.221008 1.779017,-4 4,-4 z m 27.4375,5 h 5.15625 l 5,5 H 58.4375 Z m 8,0 h 2.125 l 5,5 h -2.125 z" />
</svg>
