<?xml version="1.0" encoding="UTF-8" standalone="no"?>
<svg
   data-name="Layer 1"
   viewBox="0 0 22 70.055519"
   x="0px"
   y="0px"
   version="1.1"
   id="svg2"
   width="22"
   height="70.055519"
   xmlns="http://www.w3.org/2000/svg"
   xmlns:svg="http://www.w3.org/2000/svg">
  <defs
     id="defs2" />
  <path
     id="path1"
     d="M 11.109375,0 A 2,2 0 0 0 9.4082031,0.94726562 l -8,13.00000038 a 2,2 0 1 0 3.4003907,2.099609 l 4.3007812,-7 V 40.146484 L 0.69921875,48.566406 A 2,2 0 0 0 3.5195312,51.386719 L 9.109375,45.777344 v 3.339844 l -8.41015625,8.419921 a 2,2 0 0 0 2.82031245,2.81836 L 9.109375,54.777344 v 3.339844 l -8.41015625,8.419921 a 2,2 0 1 0 2.82031245,2.81836 l 7.5898438,-7.578125 7.589844,7.578125 a 2,2 0 0 0 2.820312,-2.81836 l -8.410156,-8.419921 v -3.339844 l 5.589844,5.578125 a 2,2 0 0 0 2.820312,-2.81836 l -8.410156,-8.419921 v -3.339844 l 5.589844,5.578125 a 2,2 0 0 0 2.820312,-2.81836 L 13.109375,40.117188 V 9.015625 l 4.298828,7 a 2,2 0 0 0 1.701172,0.931641 2,2 0 0 0 1,-0.300782 2,2 0 0 0 0.699219,-2.699218 l -8,-13.00000038 A 2,2 0 0 0 11.109375,0 Z" />
</svg>
