<?xml version="1.0" encoding="UTF-8" standalone="no"?>
<svg
   version="1.1"
   viewBox="-5 -10 92.718429 92.719574"
   id="svg8"
   width="92.71843"
   height="92.719574"
   xmlns="http://www.w3.org/2000/svg"
   xmlns:svg="http://www.w3.org/2000/svg">
  <defs
     id="defs8" />
  <path
     id="path1"
     d="m -2.4726562,-9.9941406 c -0.9175398,-0.063169 -1.8251536,0.413054 -2.2675782,1.2832031 -0.5937494,1.1601988 -0.1366876,2.5819881 1.0195313,3.1796875 3.16409681,1.4921985 5.812483,3.8867217 7.6132812,6.8867188 1.6483984,2.906197 1.6172,5.2695042 1.5625,9.5625002 -0.02344,1.894498 -0.050782,4.043002 0.054687,6.6875 0.2890597,7.105493 0.6874984,16.831602 5.5585934,25.558593 2.855498,5.113295 4.668024,6.921718 9.511719,11.757813 l 0.273438,0.273437 -5.101563,5.101563 -3.0625,-10.433594 L 2.9980469,74.722656 27.857422,65.03125 17.427734,61.964844 22.533203,56.859375 c 0.51953,0.511719 1.000013,0.988262 1.445313,1.425781 5.078095,5.015595 5.730629,5.66019 10.578125,8.367188 8.726591,4.871095 18.4526,5.269494 25.558593,5.558594 2.644498,0.109379 4.793002,0.07813 6.6875,0.05469 4.289096,-0.05469 6.656197,-0.08594 9.558594,1.5625 h 0.0039 c 2.999997,1.800798 5.394521,4.449184 6.886719,7.613281 0.59766,1.156199 2.019483,1.609431 3.175781,1.019532 1.160199,-0.59375 1.621062,-2.007777 1.039063,-3.171876 h 0.002 c -1.906198,-3.988296 -4.960929,-7.324227 -8.765625,-9.578124 -1.566398,-0.90625 -3.281202,-1.531163 -5.0625,-1.851563 L 42.587891,36.804688 65.568359,13.824219 c 0.44922,-0.46484 0.445311,-1.203057 -0.01172,-1.660157 -0.457029,-0.457099 -1.195257,-0.460938 -1.660157,-0.01172 L 40.916016,35.132812 9.8613281,4.0820312 C 9.5410184,2.300833 8.9160547,0.58592968 8.0097656,-0.98046875 5.7558679,-4.7851649 2.4199366,-7.8359957 -1.5683594,-9.7460938 -1.8593841,-9.8925786 -2.1668097,-9.9730841 -2.4726562,-9.9941406 Z m 64.6054682,12.5 -3.390624,3.3886718 -0.578126,11.2851568 3.390626,-3.390626 z m -51.998046,3.8535156 29.78125,29.78125 -15.710938,15.710937 -0.28125,-0.28125 C 19.169933,46.828117 17.732469,45.394664 15.201172,40.855469 10.880876,33.117176 10.509734,24.03915 10.240234,17.410156 c -0.10156,-2.519497 -0.07812,-4.597695 -0.05078,-6.433594 0.02344,-1.6757978 0.03906,-3.1835884 -0.05469,-4.617187 z m 48.05664,0.085937 -3.390625,3.390625 -0.578125,11.2851565 3.390625,-3.390625 z m -4.017578,4.0156255 -3.384766,3.386718 -0.582031,11.289063 3.388672,-3.390625 z M 75.144531,15.515625 63.859375,16.09375 60.46875,19.484375 71.753906,18.90625 Z m -3.941406,3.941406 -11.285156,0.578125 -3.390625,3.390625 11.285156,-0.578125 z m -4.017578,4.011719 -11.283203,0.582031 -3.390625,3.390625 11.287109,-0.582031 z m -25.601563,14.339844 29.78125,29.78125 c -1.433598,-0.09375 -2.941395,-0.07812 -4.621093,-0.05469 -1.835899,0.02344 -3.914097,0.05078 -6.433594,-0.05078 -6.628893,-0.26953 -15.70732,-0.640662 -23.445313,-4.960937 -4.285195,-2.394498 -4.585898,-2.687468 -9.558593,-7.601563 -0.4375,-0.43359 -0.914042,-0.9063 -1.425782,-1.40625 z" />
</svg>
