<?xml version="1.0" encoding="UTF-8" standalone="no"?>
<svg
   version="1.1"
   x="0px"
   y="0px"
   viewBox="0 0 56 49.105999"
   enable-background="new 0 0 64 64"
   xml:space="preserve"
   id="svg2"
   width="56"
   height="49.105999"
   xmlns="http://www.w3.org/2000/svg"
   xmlns:svg="http://www.w3.org/2000/svg"><defs
     id="defs2" /><path
     id="path1"
     d="m 19.130859,0 c -0.463999,1.7979982 0.407455,3.1285017 1.564453,4.8125 1.507999,2.2579977 3.653436,5.38835 2.148438,11.652344 H 11.828125 c 0.577999,-0.810999 0.982422,-1.798392 0.982422,-2.900391 0,-1.390998 -0.580267,-2.606516 -1.447266,-3.478515 C 10.490282,9.1589384 9.2157643,8.6367188 7.8847656,8.6367188 c -1.3359986,0 -2.6115165,0.5222196 -3.4785156,1.4492192 -0.8719991,0.872999 -1.4511719,2.087517 -1.4511719,3.478515 0,1.100999 0.4033287,2.088392 0.9863281,2.900391 -1.7989982,0 -3.01510985,0.753094 -3.53710932,1.621094 C 0.1752971,18.548937 0,18.957875 0,19.421875 c 0,0.464 0.1752971,0.926032 0.40429688,1.332031 0.57799942,0.871999 1.73811112,1.625 3.53710932,1.625 h 3.015625 c 0,2.316998 0.1140627,4.519487 0.2890626,6.896485 -10e-8,1.449998 -0.697454,3.714315 -1.5644532,6.320312 -1.2209988,3.827996 -2.7265625,8.520396 -2.7265625,13.275391 h 1.9707031 c 0,-4.464996 1.4490169,-8.985363 2.6660157,-12.69336 l 0.3496093,-1.160156 c 0.5819995,3.826996 1.448439,8.287897 2.8984378,14.087891 l 1.914062,-0.462891 C 9.5649094,35.828591 8.9877343,29.624899 8.9277344,22.378906 H 11.826172 V 20.408203 H 8.8671875 V 18.435547 H 22.318359 c -1.913998,5.795994 -5.158752,7.359485 -7.59375,8.521484 -1.793998,0.870999 -3.243031,1.564283 -3.707031,3.363281 l 1.914063,0.521485 c 0.228999,-0.927999 1.331017,-1.447532 2.666015,-2.144531 2.895997,-1.390999 6.896377,-3.363992 8.984375,-10.958985 C 26.610029,10.087289 24.119311,6.3780286 22.320312,3.7070312 21.448313,2.4350325 20.754922,1.4494834 21.044922,0.52148438 Z M 50.089844,5.6816406 V 16.464844 H 35.361328 v 1.970703 h 14.726563 v 8.462891 2.320312 3.941406 15.710938 h 1.96875 v -15.710938 -1.5625 l 1.974609,1.96875 V 48.871094 H 56 V 33.160156 32.753906 L 55.710938,32.464844 52.058594,28.810547 V 5.6816406 Z M 7.8847656,10.609375 c 0.8079992,0 1.5639849,0.289188 2.0839844,0.867187 0.521999,0.524 0.871094,1.216892 0.871094,2.087891 0,0.811999 -0.349095,1.506298 -0.871094,2.029297 -0.5199995,0.521999 -1.1577039,0.871094 -1.9707031,0.871094 H 7.765625 c -0.7529992,0 -1.4467505,-0.349095 -1.96875,-0.871094 -0.5229995,-0.522999 -0.8710938,-1.216298 -0.8710938,-2.029297 0,-0.870999 0.3480943,-1.564891 0.8710938,-2.087891 0.5229995,-0.577999 1.2748914,-0.867187 2.0878906,-0.867187 z M 3.9414062,18.435547 H 6.8984375 V 20.40625 H 3.9414062 c -0.985999,0 -1.6244221,-0.291313 -1.8574218,-0.695312 -0.055,-0.06 -0.1152344,-0.174063 -0.1152344,-0.289063 0,-0.115 0.059234,-0.175063 0.1152344,-0.289063 0.2329997,-0.407999 0.8114229,-0.697265 1.8574218,-0.697265 z" /></svg>
