<?xml version="1.0" encoding="UTF-8" standalone="no"?>
<svg
   version="1.1"
   x="0px"
   y="0px"
   viewBox="0 0 28.777 56"
   enable-background="new 0 0 64 64"
   xml:space="preserve"
   id="svg2"
   width="28.777"
   height="56"
   xmlns="http://www.w3.org/2000/svg"
   xmlns:svg="http://www.w3.org/2000/svg"><defs
     id="defs2" /><path
     id="path1"
     d="m 11.46875,0 c 0,2.1759978 -1.353548,3.3951266 -3.185547,4.953125 -2.445997,2.1059979 -5.773562,5.0239607 -5.976562,12.626953 8.077992,2.509998 12.693598,1.832171 17.308594,0.951172 -0.27,-0.204 -0.544454,-0.477735 -0.814454,-0.677734 -1.018998,-1.089999 -1.697265,-2.513268 -1.697265,-4.072266 0,-1.562998 0.677267,-3.056267 1.697265,-4.0722656 1.014999,-1.019999 2.509315,-1.6972656 4.070313,-1.6972656 1.562998,0 2.990173,0.6762666 4.076172,1.6972656 1.016999,1.0859986 1.693359,2.5092676 1.693359,4.0722656 0,1.288999 -0.472704,2.509392 -1.220703,3.525391 0.408,-0.065 0.881063,-0.06445 1.289063,-0.06445 l 0.06836,2.306637 h -0.06836 -0.269532 -0.884765 C 17.103698,20.499827 15.406233,34.282541 14.115235,44.394531 13.440235,49.756526 12.896905,54.237002 11.128906,56 L 9.5,54.371094 c 1.222999,-1.224999 1.699548,-5.297958 2.310547,-10.251953 1.014999,-7.941992 2.238209,-17.919896 7.533203,-23.212891 -4.548995,0.881999 -9.230757,1.423826 -16.96875,-0.951172 0.406,7.060993 3.531253,9.776502 5.90625,11.8125 1.832998,1.562999 3.1875,2.78244 3.1875,5.023438 H 9.16211 c 0,-1.154999 -1.018002,-2.107814 -2.375,-3.257813 C 3.934112,31.018206 0,27.627475 0,18.396484 0,9.0954937 3.933112,5.7014037 6.78711,3.1914062 8.144108,2.0364074 9.16211,1.1549988 9.16211,0 Z m 11.402344,10.316406 c -0.946999,0 -1.832407,0.409485 -2.441406,1.021485 -0.613,0.611999 -1.017578,1.49236 -1.017578,2.443359 0,0.945999 0.404578,1.832454 1.017578,2.439453 0.608999,0.613 1.494407,1.021485 2.441406,1.021485 0.950999,0 1.83636,-0.409485 2.443359,-1.021485 0.612,-0.606999 1.019532,-1.493454 1.019532,-2.439453 0,-0.950999 -0.408532,-1.83136 -1.019532,-2.443359 -0.606999,-0.613 -1.49236,-1.021485 -2.443359,-1.021485 z m -2.169922,21.859375 c 0,7.399993 1.357126,10.655581 2.578125,13.642578 h -0.06641 c 1.085999,2.648998 2.101563,5.023239 2.101563,9.365235 h -2.306641 c 0,-3.932996 -0.880392,-6.109378 -1.900391,-8.484375 -1.290998,-3.185997 -2.714844,-6.715446 -2.714844,-14.523438 z" /></svg>
