<?xml version="1.0" encoding="UTF-8" standalone="no"?>
<svg
   viewBox="0 0 8.6997348 11.642016"
   version="1.1"
   x="0px"
   y="0px"
   id="svg2"
   width="8.6997347"
   height="11.642016"
   xmlns="http://www.w3.org/2000/svg"
   xmlns:svg="http://www.w3.org/2000/svg">
  <defs
     id="defs2" />
  <path
     id="path1"
     d="M 5.84375,0.00195313 A 0.13758238,0.13758238 0 0 0 5.7578125,0.23828125 5.0908981,5.0908981 0 0 1 7.1347656,2.5898438 H 3.1679688 A 0.85905839,0.85905839 0 0 0 1.5546875,2.0039062 L 0.65625,2.3515625 A 1.0261763,1.0261763 0 0 0 0.25390625,3.984375 L 1.4042969,5.3027344 V 11.09375 a 0.55012915,0.55012915 0 0 0 1.0996093,0 V 8.2519531 A 0.05502763,0.05502763 0 0 1 2.6132812,8.2421875 10.894728,10.894728 0 0 0 3.5761719,11.332031 0.55032137,0.55032137 0 0 0 4.5664062,10.851562 9.794474,9.794474 0 0 1 3.640625,7.6035156 V 7.0136719 4.703125 A 0.26458338,0.26458338 0 0 1 3.9042969,4.4394531 H 7.0273438 A 0.55012719,0.55012719 0 0 0 7.2792969,4.3769531 5.0908981,5.0908981 0 0 1 5.7578125,7.5410156 0.13754651,0.13754651 0 0 0 5.9492188,7.7363281 5.3659619,5.3659619 0 0 0 7.4785156,2.8632812 H 8.2539062 V 3.1523438 L 8.6992188,2.7265625 8.2539062,2.2988281 V 2.5878906 H 7.4179688 a 5.3659619,5.3659619 0 0 0 -1.46875,-2.5488281 0.13758238,0.13758238 0 0 0 -0.095703,-0.03710937 0.13758238,0.13758238 0 0 0 -0.00977,0 z M 2.3515625,1.5957031 A 0.7267667,0.7267667 0 1 1 1.7246094,2.6835938 L 1.0078125,2.9589844 A 0.40735527,0.40735527 0 0 0 0.84765625,3.6074219 L 1.5722656,4.4355469 A 1.2430263,1.2430263 0 0 1 2.7832031,3.4726562 H 7.03125 a 0.4181,0.4181 0 0 1 0,0.8359376 H 3.9082031 A 0.396875,0.396875 0 0 0 3.5117188,4.7050781 V 7.0136719 7.6132812 A 9.9267654,9.9267654 0 0 0 4.4511719,10.912109 0.41798218,0.41798218 0 0 1 3.6992188,11.275391 10.762437,10.762437 0 0 1 2.7480469,8.2246094 0.18730439,0.18730439 0 0 0 2.3769531,8.2539062 V 11.09375 a 0.41796875,0.41796875 0 0 1 -0.8359375,0 V 5.2539062 L 0.35742188,3.8964844 A 0.89388465,0.89388465 0 0 1 0.70703125,2.4765625 L 1.6621094,2.1054688 A 0.7267667,0.7267667 0 0 1 2.3515625,1.5957031 Z M 1.6738281,2.84375 a 0.85905839,0.85905839 0 0 0 1.3496094,0.021484 H 7.203125 a 5.0908981,5.0908981 0 0 1 0.074219,0.4746094 H 2.7832031 A 1.3753181,1.3753181 0 0 0 1.5195312,4.1738281 L 0.94726562,3.5214844 a 0.27506358,0.27506358 0 0 1 0.10937498,-0.4375 z" />
</svg>
